<svg xmlns="http://www.w3.org/2000/svg">
<path d="M7.98828 17.9581V19.9887L7.49847 19.5921C7.42279 19.5307 5.6221 18.0652 3.79608 15.9637C1.27716 13.0646 0 10.4622 0 8.22917V8.00783C0 3.5923 3.58353 0 7.98828 0C12.393 0 15.9766 3.5923 15.9766 8.00783V8.22917C15.9766 8.4167 15.9666 8.60713 15.9486 8.79987L14.3864 7.37121C14.0665 4.11497 11.3193 1.5625 7.98828 1.5625C4.44305 1.5625 1.55869 4.45393 1.55869 8.00783V8.22917C1.55869 12.0027 6.40884 16.5709 7.98828 17.9581ZM12.7812 16.8358H15.1192V14.4922H12.7812V16.8358ZM7.98828 4.6875C9.81461 4.6875 11.3005 6.17704 11.3005 8.00783C11.3005 9.83863 9.81461 11.3282 7.98828 11.3282C6.16196 11.3282 4.67606 9.83863 4.67606 8.00783C4.67606 6.17704 6.16196 4.6875 7.98828 4.6875ZM7.98828 6.25C7.02133 6.25 6.23474 7.03852 6.23474 8.00783C6.23474 8.97699 7.02133 9.76566 7.98828 9.76566C8.95508 9.76566 9.74182 8.97699 9.74182 8.00783C9.74182 7.03852 8.95508 6.25 7.98828 6.25ZM18.9496 15.7741L18.5114 15.3734V17.8818C18.5114 19.0498 17.5633 20 16.3982 20H11.4633C10.2982 20 9.35013 19.0498 9.35013 17.8818V15.3734L8.9119 15.7741L7.86148 14.6199L13.9307 9.06938L20 14.6199L18.9496 15.7741ZM16.9527 13.9479L13.9307 11.1844L10.9088 13.9479V17.8816C10.9088 18.1882 11.1575 18.4375 11.4633 18.4375H16.3982C16.7039 18.4375 16.9527 18.1882 16.9527 17.8816V13.9479Z" fill="#004686"/>
</svg>
