<svg width="20" height="16" viewBox="0 0 20 16" xmlns="http://www.w3.org/2000/svg">
<path d="M19.2188 9.38672C19.6502 9.38672 20 9.03695 20 8.60547V3.48828C20 1.76516 18.5981 0.363281 16.875 0.363281H3.125C1.40188 0.363281 0 1.76516 0 3.48828V12.5117C0 14.2348 1.40188 15.6367 3.125 15.6367H16.875C18.5981 15.6367 20 14.2348 20 12.5117C20 12.0802 19.6502 11.7305 19.2188 11.7305C18.7873 11.7305 18.4375 12.0802 18.4375 12.5117C18.4375 13.3733 17.7366 14.0742 16.875 14.0742H3.125C2.26344 14.0742 1.5625 13.3733 1.5625 12.5117V3.65383L8.3498 7.87434C8.85875 8.19078 9.42937 8.34902 10 8.34902C10.5706 8.34902 11.1412 8.19078 11.6502 7.87434L18.4375 3.65383V8.60547C18.4375 9.03695 18.7873 9.38672 19.2188 9.38672ZM10.8251 6.54742C10.3162 6.86387 9.68383 6.86391 9.17492 6.54742L2.21441 2.21922C2.47098 2.03461 2.78551 1.92578 3.125 1.92578H16.875C17.2145 1.92578 17.529 2.03465 17.7856 2.21926L10.8251 6.54742Z" />
</svg>
