<svg width="22" height="22" viewBox="0 0 22 22" xmlns="http://www.w3.org/2000/svg">
<mask id="path-1-outside-1" maskUnits="userSpaceOnUse" x="0" y="1.31298" width="22" height="20" fill="black">
<rect fill="white" y="1.31298" width="22" height="20"/>
<path d="M17.8363 13.4524C17.3997 13.0296 16.8732 12.8035 16.3152 12.8035C15.7616 12.8035 15.2306 13.0254 14.776 13.4482L13.3539 14.7668C13.2369 14.7082 13.1199 14.6538 13.0074 14.5994C12.8454 14.524 12.6924 14.4528 12.5619 14.3775C11.2298 13.5905 10.0192 12.5649 8.8581 11.2379C8.29556 10.5765 7.91753 10.0197 7.64301 9.45457C8.01204 9.14061 8.35406 8.81409 8.68709 8.50013C8.8131 8.38291 8.93911 8.26151 9.06511 8.1443C10.0102 7.26521 10.0102 6.12657 9.06511 5.24748L7.83652 4.10466C7.69701 3.97489 7.553 3.84093 7.41799 3.70697C7.14797 3.44743 6.86445 3.17952 6.57193 2.92835C6.1354 2.52647 5.61336 2.31298 5.06432 2.31298C4.51528 2.31298 3.98424 2.52647 3.5342 2.92835C3.5297 2.93253 3.5297 2.93253 3.5252 2.93672L1.99509 4.37257C1.41905 4.9084 1.09052 5.56144 1.01852 6.31914C0.91051 7.5415 1.29754 8.68013 1.59456 9.42527C2.32361 11.2546 3.4127 12.95 5.03732 14.7668C7.00846 16.9562 9.38014 18.6851 12.0893 19.9032C13.1244 20.3595 14.506 20.8995 16.0496 20.9916C16.1441 20.9958 16.2431 21 16.3332 21C17.3727 21 18.2458 20.6526 18.9298 19.9618C18.9343 19.9535 18.9433 19.9493 18.9478 19.9409C19.1819 19.6772 19.4519 19.4386 19.7354 19.1832C19.9289 19.0116 20.1269 18.8316 20.3204 18.6432C20.766 18.212 21 17.7097 21 17.1948C21 16.6757 20.7615 16.1775 20.3069 15.7589L17.8363 13.4524ZM19.4474 17.8604C19.4429 17.8604 19.4429 17.8646 19.4474 17.8604C19.2719 18.0362 19.0919 18.1953 18.8983 18.3711C18.6058 18.6306 18.3088 18.9027 18.0298 19.2083C17.5752 19.6604 17.0397 19.8739 16.3377 19.8739C16.2701 19.8739 16.1981 19.8739 16.1306 19.8697C14.794 19.7902 13.5519 19.3046 12.6204 18.8902C10.0732 17.7432 7.83652 16.1148 5.97789 14.051C4.44327 12.3305 3.4172 10.7397 2.73765 9.03177C2.31911 7.98941 2.1661 7.1773 2.23361 6.41123C2.27861 5.92145 2.48113 5.51539 2.85465 5.16794L4.38927 3.74046C4.60978 3.5479 4.8438 3.44324 5.07332 3.44324C5.35684 3.44324 5.58636 3.60232 5.73037 3.73628C5.73487 3.74046 5.73937 3.74465 5.74387 3.74883C6.01839 3.98745 6.27941 4.23443 6.55393 4.49816C6.69344 4.63211 6.83745 4.76607 6.98146 4.90421L8.21005 6.04704C8.68709 6.49077 8.68709 6.90101 8.21005 7.34475C8.07954 7.46615 7.95353 7.58754 7.82302 7.70476C7.44499 8.06476 7.08497 8.39966 6.69344 8.72618C6.68444 8.73455 6.67544 8.73874 6.67094 8.74711C6.28391 9.10712 6.35591 9.45876 6.43692 9.69737C6.44142 9.70993 6.44592 9.72249 6.45042 9.73504C6.76994 10.4551 7.21998 11.1332 7.90403 11.9412L7.90853 11.9453C9.15062 13.3686 10.4602 14.478 11.9048 15.3278C12.0893 15.4366 12.2784 15.5245 12.4584 15.6082C12.6204 15.6836 12.7734 15.7547 12.9039 15.8301C12.9219 15.8385 12.9399 15.851 12.9579 15.8594C13.1109 15.9306 13.2549 15.9641 13.4034 15.9641C13.777 15.9641 14.011 15.7464 14.0875 15.6752L15.6266 14.2435C15.7796 14.1012 16.0226 13.9296 16.3062 13.9296C16.5852 13.9296 16.8147 14.0928 16.9542 14.2352C16.9587 14.2394 16.9587 14.2394 16.9632 14.2435L19.4429 16.5501C19.9064 16.9771 19.9064 17.4166 19.4474 17.8604Z"/>
</mask>
<path d="M17.8363 13.4524C17.3997 13.0296 16.8732 12.8035 16.3152 12.8035C15.7616 12.8035 15.2306 13.0254 14.776 13.4482L13.3539 14.7668C13.2369 14.7082 13.1199 14.6538 13.0074 14.5994C12.8454 14.524 12.6924 14.4528 12.5619 14.3775C11.2298 13.5905 10.0192 12.5649 8.8581 11.2379C8.29556 10.5765 7.91753 10.0197 7.64301 9.45457C8.01204 9.14061 8.35406 8.81409 8.68709 8.50013C8.8131 8.38291 8.93911 8.26151 9.06511 8.1443C10.0102 7.26521 10.0102 6.12657 9.06511 5.24748L7.83652 4.10466C7.69701 3.97489 7.553 3.84093 7.41799 3.70697C7.14797 3.44743 6.86445 3.17952 6.57193 2.92835C6.1354 2.52647 5.61336 2.31298 5.06432 2.31298C4.51528 2.31298 3.98424 2.52647 3.5342 2.92835C3.5297 2.93253 3.5297 2.93253 3.5252 2.93672L1.99509 4.37257C1.41905 4.9084 1.09052 5.56144 1.01852 6.31914C0.91051 7.5415 1.29754 8.68013 1.59456 9.42527C2.32361 11.2546 3.4127 12.95 5.03732 14.7668C7.00846 16.9562 9.38014 18.6851 12.0893 19.9032C13.1244 20.3595 14.506 20.8995 16.0496 20.9916C16.1441 20.9958 16.2431 21 16.3332 21C17.3727 21 18.2458 20.6526 18.9298 19.9618C18.9343 19.9535 18.9433 19.9493 18.9478 19.9409C19.1819 19.6772 19.4519 19.4386 19.7354 19.1832C19.9289 19.0116 20.1269 18.8316 20.3204 18.6432C20.766 18.212 21 17.7097 21 17.1948C21 16.6757 20.7615 16.1775 20.3069 15.7589L17.8363 13.4524ZM19.4474 17.8604C19.4429 17.8604 19.4429 17.8646 19.4474 17.8604C19.2719 18.0362 19.0919 18.1953 18.8983 18.3711C18.6058 18.6306 18.3088 18.9027 18.0298 19.2083C17.5752 19.6604 17.0397 19.8739 16.3377 19.8739C16.2701 19.8739 16.1981 19.8739 16.1306 19.8697C14.794 19.7902 13.5519 19.3046 12.6204 18.8902C10.0732 17.7432 7.83652 16.1148 5.97789 14.051C4.44327 12.3305 3.4172 10.7397 2.73765 9.03177C2.31911 7.98941 2.1661 7.1773 2.23361 6.41123C2.27861 5.92145 2.48113 5.51539 2.85465 5.16794L4.38927 3.74046C4.60978 3.5479 4.8438 3.44324 5.07332 3.44324C5.35684 3.44324 5.58636 3.60232 5.73037 3.73628C5.73487 3.74046 5.73937 3.74465 5.74387 3.74883C6.01839 3.98745 6.27941 4.23443 6.55393 4.49816C6.69344 4.63211 6.83745 4.76607 6.98146 4.90421L8.21005 6.04704C8.68709 6.49077 8.68709 6.90101 8.21005 7.34475C8.07954 7.46615 7.95353 7.58754 7.82302 7.70476C7.44499 8.06476 7.08497 8.39966 6.69344 8.72618C6.68444 8.73455 6.67544 8.73874 6.67094 8.74711C6.28391 9.10712 6.35591 9.45876 6.43692 9.69737C6.44142 9.70993 6.44592 9.72249 6.45042 9.73504C6.76994 10.4551 7.21998 11.1332 7.90403 11.9412L7.90853 11.9453C9.15062 13.3686 10.4602 14.478 11.9048 15.3278C12.0893 15.4366 12.2784 15.5245 12.4584 15.6082C12.6204 15.6836 12.7734 15.7547 12.9039 15.8301C12.9219 15.8385 12.9399 15.851 12.9579 15.8594C13.1109 15.9306 13.2549 15.9641 13.4034 15.9641C13.777 15.9641 14.011 15.7464 14.0875 15.6752L15.6266 14.2435C15.7796 14.1012 16.0226 13.9296 16.3062 13.9296C16.5852 13.9296 16.8147 14.0928 16.9542 14.2352C16.9587 14.2394 16.9587 14.2394 16.9632 14.2435L19.4429 16.5501C19.9064 16.9771 19.9064 17.4166 19.4474 17.8604Z" />
<path d="M17.8363 13.4524C17.3997 13.0296 16.8732 12.8035 16.3152 12.8035C15.7616 12.8035 15.2306 13.0254 14.776 13.4482L13.3539 14.7668C13.2369 14.7082 13.1199 14.6538 13.0074 14.5994C12.8454 14.524 12.6924 14.4528 12.5619 14.3775C11.2298 13.5905 10.0192 12.5649 8.8581 11.2379C8.29556 10.5765 7.91753 10.0197 7.64301 9.45457C8.01204 9.14061 8.35406 8.81409 8.68709 8.50013C8.8131 8.38291 8.93911 8.26151 9.06511 8.1443C10.0102 7.26521 10.0102 6.12657 9.06511 5.24748L7.83652 4.10466C7.69701 3.97489 7.553 3.84093 7.41799 3.70697C7.14797 3.44743 6.86445 3.17952 6.57193 2.92835C6.1354 2.52647 5.61336 2.31298 5.06432 2.31298C4.51528 2.31298 3.98424 2.52647 3.5342 2.92835C3.5297 2.93253 3.5297 2.93253 3.5252 2.93672L1.99509 4.37257C1.41905 4.9084 1.09052 5.56144 1.01852 6.31914C0.91051 7.5415 1.29754 8.68013 1.59456 9.42527C2.32361 11.2546 3.4127 12.95 5.03732 14.7668C7.00846 16.9562 9.38014 18.6851 12.0893 19.9032C13.1244 20.3595 14.506 20.8995 16.0496 20.9916C16.1441 20.9958 16.2431 21 16.3332 21C17.3727 21 18.2458 20.6526 18.9298 19.9618C18.9343 19.9535 18.9433 19.9493 18.9478 19.9409C19.1819 19.6772 19.4519 19.4386 19.7354 19.1832C19.9289 19.0116 20.1269 18.8316 20.3204 18.6432C20.766 18.212 21 17.7097 21 17.1948C21 16.6757 20.7615 16.1775 20.3069 15.7589L17.8363 13.4524ZM19.4474 17.8604C19.4429 17.8604 19.4429 17.8646 19.4474 17.8604C19.2719 18.0362 19.0919 18.1953 18.8983 18.3711C18.6058 18.6306 18.3088 18.9027 18.0298 19.2083C17.5752 19.6604 17.0397 19.8739 16.3377 19.8739C16.2701 19.8739 16.1981 19.8739 16.1306 19.8697C14.794 19.7902 13.5519 19.3046 12.6204 18.8902C10.0732 17.7432 7.83652 16.1148 5.97789 14.051C4.44327 12.3305 3.4172 10.7397 2.73765 9.03177C2.31911 7.98941 2.1661 7.1773 2.23361 6.41123C2.27861 5.92145 2.48113 5.51539 2.85465 5.16794L4.38927 3.74046C4.60978 3.5479 4.8438 3.44324 5.07332 3.44324C5.35684 3.44324 5.58636 3.60232 5.73037 3.73628C5.73487 3.74046 5.73937 3.74465 5.74387 3.74883C6.01839 3.98745 6.27941 4.23443 6.55393 4.49816C6.69344 4.63211 6.83745 4.76607 6.98146 4.90421L8.21005 6.04704C8.68709 6.49077 8.68709 6.90101 8.21005 7.34475C8.07954 7.46615 7.95353 7.58754 7.82302 7.70476C7.44499 8.06476 7.08497 8.39966 6.69344 8.72618C6.68444 8.73455 6.67544 8.73874 6.67094 8.74711C6.28391 9.10712 6.35591 9.45876 6.43692 9.69737C6.44142 9.70993 6.44592 9.72249 6.45042 9.73504C6.76994 10.4551 7.21998 11.1332 7.90403 11.9412L7.90853 11.9453C9.15062 13.3686 10.4602 14.478 11.9048 15.3278C12.0893 15.4366 12.2784 15.5245 12.4584 15.6082C12.6204 15.6836 12.7734 15.7547 12.9039 15.8301C12.9219 15.8385 12.9399 15.851 12.9579 15.8594C13.1109 15.9306 13.2549 15.9641 13.4034 15.9641C13.777 15.9641 14.011 15.7464 14.0875 15.6752L15.6266 14.2435C15.7796 14.1012 16.0226 13.9296 16.3062 13.9296C16.5852 13.9296 16.8147 14.0928 16.9542 14.2352C16.9587 14.2394 16.9587 14.2394 16.9632 14.2435L19.4429 16.5501C19.9064 16.9771 19.9064 17.4166 19.4474 17.8604Z" stroke-width="0.4" mask="url(#path-1-outside-1)"/>
<mask id="path-2-outside-2" maskUnits="userSpaceOnUse" x="10.3249" y="4.11691" width="8" height="9" fill="black">
<rect fill="white" x="10.3249" y="4.11691" width="8" height="9"/>
<path d="M11.794 6.4001C12.8999 6.61092 13.9045 7.20507 14.7065 8.11544C15.5085 9.02582 16.0277 10.1662 16.2177 11.4215C16.2641 11.7378 16.5047 11.9582 16.7791 11.9582C16.8129 11.9582 16.8424 11.9534 16.8762 11.9486C17.1885 11.8911 17.3954 11.5557 17.3447 11.2011C17.1168 9.68225 16.4836 8.29752 15.517 7.20027C14.5503 6.10303 13.3304 5.38431 11.9924 5.12557C11.68 5.06808 11.3887 5.30286 11.3339 5.65263C11.279 6.00241 11.4816 6.3426 11.794 6.4001Z"/>
</mask>
<path d="M11.794 6.4001C12.8999 6.61092 13.9045 7.20507 14.7065 8.11544C15.5085 9.02582 16.0277 10.1662 16.2177 11.4215C16.2641 11.7378 16.5047 11.9582 16.7791 11.9582C16.8129 11.9582 16.8424 11.9534 16.8762 11.9486C17.1885 11.8911 17.3954 11.5557 17.3447 11.2011C17.1168 9.68225 16.4836 8.29752 15.517 7.20027C14.5503 6.10303 13.3304 5.38431 11.9924 5.12557C11.68 5.06808 11.3887 5.30286 11.3339 5.65263C11.279 6.00241 11.4816 6.3426 11.794 6.4001Z" />
<path d="M11.794 6.4001C12.8999 6.61092 13.9045 7.20507 14.7065 8.11544C15.5085 9.02582 16.0277 10.1662 16.2177 11.4215C16.2641 11.7378 16.5047 11.9582 16.7791 11.9582C16.8129 11.9582 16.8424 11.9534 16.8762 11.9486C17.1885 11.8911 17.3954 11.5557 17.3447 11.2011C17.1168 9.68225 16.4836 8.29752 15.517 7.20027C14.5503 6.10303 13.3304 5.38431 11.9924 5.12557C11.68 5.06808 11.3887 5.30286 11.3339 5.65263C11.279 6.00241 11.4816 6.3426 11.794 6.4001Z" stroke-width="0.4" mask="url(#path-2-outside-2)"/>
<mask id="path-3-outside-3" maskUnits="userSpaceOnUse" x="10.4866" y="0" width="11" height="12" fill="black">
<rect fill="white" x="10.4866" width="11" height="12"/>
<path d="M20.9623 11.0144C20.5866 8.51329 19.5482 6.23734 17.9526 4.42617C16.357 2.615 14.3519 1.4363 12.1485 1.00986C11.8404 0.947573 11.5491 1.18715 11.4942 1.53692C11.4436 1.89149 11.6504 2.2221 11.9628 2.28439C13.9298 2.66291 15.7238 3.72183 17.1506 5.33655C18.5773 6.95606 19.506 8.99243 19.8394 11.2253C19.8859 11.5415 20.1265 11.7619 20.4008 11.7619C20.4346 11.7619 20.4642 11.7571 20.4979 11.7523C20.8061 11.6996 21.0171 11.3642 20.9623 11.0144Z"/>
</mask>
<path d="M20.9623 11.0144C20.5866 8.51329 19.5482 6.23734 17.9526 4.42617C16.357 2.615 14.3519 1.4363 12.1485 1.00986C11.8404 0.947573 11.5491 1.18715 11.4942 1.53692C11.4436 1.89149 11.6504 2.2221 11.9628 2.28439C13.9298 2.66291 15.7238 3.72183 17.1506 5.33655C18.5773 6.95606 19.506 8.99243 19.8394 11.2253C19.8859 11.5415 20.1265 11.7619 20.4008 11.7619C20.4346 11.7619 20.4642 11.7571 20.4979 11.7523C20.8061 11.6996 21.0171 11.3642 20.9623 11.0144Z" />
<path d="M20.9623 11.0144C20.5866 8.51329 19.5482 6.23734 17.9526 4.42617C16.357 2.615 14.3519 1.4363 12.1485 1.00986C11.8404 0.947573 11.5491 1.18715 11.4942 1.53692C11.4436 1.89149 11.6504 2.2221 11.9628 2.28439C13.9298 2.66291 15.7238 3.72183 17.1506 5.33655C18.5773 6.95606 19.506 8.99243 19.8394 11.2253C19.8859 11.5415 20.1265 11.7619 20.4008 11.7619C20.4346 11.7619 20.4642 11.7571 20.4979 11.7523C20.8061 11.6996 21.0171 11.3642 20.9623 11.0144Z" stroke-width="0.4" mask="url(#path-3-outside-3)"/>
</svg>
