<svg width="19" height="19" viewBox="0 0 19 19" xmlns="http://www.w3.org/2000/svg">
<path d="M18.7943 17.8017L13.6933 12.7008C13.4191 12.4265 12.9749 12.4265 12.7007 12.7008C12.4265 12.9748 12.4265 13.4194 12.7007 13.6934L17.8017 18.7943C17.9388 18.9315 18.1183 19 18.298 19C18.4777 19 18.6572 18.9315 18.7943 18.7943C19.0685 18.5203 19.0685 18.0758 18.7943 17.8017Z" fill="#004686"/>
<path d="M8.02587 0C3.60039 0 0 3.60039 0 8.02587C0 12.4513 3.60039 16.0517 8.02587 16.0517C12.4513 16.0517 16.0517 12.4513 16.0517 8.02587C16.0517 3.60039 12.4513 0 8.02587 0ZM8.02587 14.6478C4.37445 14.6478 1.40396 11.6773 1.40396 8.02587C1.40396 4.37445 4.37445 1.40396 8.02587 1.40396C11.6771 1.40396 14.6478 4.37445 14.6478 8.02587C14.6478 11.6773 11.6773 14.6478 8.02587 14.6478Z" fill="#004686"/>
</svg>
